<svg width="16" height="14" viewBox="0 0 16 14" fill="none" xmlns="http://www.w3.org/2000/svg">
<path d="M2.33431 13.821H9.33003C10.5218 13.8471 11.6994 13.556 12.7446 12.977C13.719 12.4167 14.5076 11.578 15.0114 10.5662C15.5603 9.43395 15.8325 8.18531 15.8052 6.92491C15.8357 5.65661 15.5634 4.39954 15.0114 3.25997C14.5092 2.24569 13.7203 1.4048 12.7446 0.843843C11.6994 0.264855 10.5218 -0.0261954 9.33003 -9.18286e-05H7.12044C5.9295 -0.0262278 4.75274 0.264839 3.70847 0.843843C2.7316 1.40328 1.94228 2.24458 1.44163 3.25997C0.888773 4.39932 0.615612 5.65639 0.645244 6.92491V10.7791C0.645244 13.0007 1.2074 13.821 2.33431 13.821ZM4.36952 3.41771C5.01843 2.61146 5.9354 2.20834 7.12044 2.20834H9.33003C10.5168 2.20834 11.4346 2.61321 12.0835 3.42297C12.7325 4.23273 13.056 5.40004 13.0543 6.92491C13.0543 8.46905 12.7351 9.64075 12.0966 10.44C11.4581 11.2392 10.5359 11.6397 9.33003 11.6415H3.43C3.43 11.6415 3.39616 8.46818 3.39616 6.92491C3.39616 5.38164 3.72148 4.2301 4.36952 3.41771Z" fill="#2963A3"/>
</svg>
